<?xml version="1.0" encoding="UTF-8" standalone="no"?>
<!DOCTYPE svg PUBLIC "-//W3C//DTD SVG 1.1//EN"
 "http://www.w3.org/Graphics/SVG/1.1/DTD/svg11.dtd">
<!-- Generated by graphviz version 2.38.0 (20140413.2041)
 -->
<!-- Title: odph_api.h Pages: 1 -->
<svg width="1680pt" height="196pt"
 viewBox="0.00 0.00 1679.97 196.00" xmlns="http://www.w3.org/2000/svg" xmlns:xlink="http://www.w3.org/1999/xlink">
<g id="graph0" class="graph" transform="scale(1 1) rotate(0) translate(4 192)">
<title>odph_api.h</title>
<polygon fill="white" stroke="none" points="-4,4 -4,-192 1675.97,-192 1675.97,4 -4,4"/>
<!-- Node0 -->
<g id="node1" class="node"><title>Node0</title>
<polygon fill="#bfbfbf" stroke="black" points="836.474,-168.5 836.474,-187.5 905.474,-187.5 905.474,-168.5 836.474,-168.5"/>
<text text-anchor="middle" x="870.974" y="-175.5" font-family="Helvetica,sans-Serif" font-size="10.00">odph_api.h</text>
</g>
<!-- Node1 -->
<g id="node2" class="node"><title>Node1</title>
<g id="a_node2"><a xlink:href="chksum_8h.html" target="_top" xlink:title="ODP checksum helper. ">
<polygon fill="white" stroke="black" points="851.474,-56.5 851.474,-75.5 968.474,-75.5 968.474,-56.5 851.474,-56.5"/>
<text text-anchor="middle" x="909.974" y="-63.5" font-family="Helvetica,sans-Serif" font-size="10.00">odp/helper/chksum.h</text>
</a>
</g>
</g>
<!-- Node0&#45;&gt;Node1 -->
<g id="edge1" class="edge"><title>Node0&#45;&gt;Node1</title>
<path fill="none" stroke="midnightblue" d="M905.495,-170.765C927.47,-164.817 954.288,-153.437 967.974,-132 980.452,-112.456 957.182,-93.0087 936.507,-80.5515"/>
<polygon fill="midnightblue" stroke="midnightblue" points="938.046,-77.4006 927.623,-75.5027 934.587,-83.4865 938.046,-77.4006"/>
</g>
<!-- Node3 -->
<g id="node4" class="node"><title>Node3</title>
<g id="a_node4"><a xlink:href="odph__cuckootable_8h.html" target="_top" xlink:title="ODP Cuckoo Hash Table. ">
<polygon fill="white" stroke="black" points="20.4739,-112.5 20.4739,-131.5 187.474,-131.5 187.474,-112.5 20.4739,-112.5"/>
<text text-anchor="middle" x="103.974" y="-119.5" font-family="Helvetica,sans-Serif" font-size="10.00">odp/helper/odph_cuckootable.h</text>
</a>
</g>
</g>
<!-- Node0&#45;&gt;Node3 -->
<g id="edge3" class="edge"><title>Node0&#45;&gt;Node3</title>
<path fill="none" stroke="midnightblue" d="M836.432,-174.991C737.425,-169.167 444.145,-151.444 200.974,-132 199.878,-131.912 198.775,-131.823 197.667,-131.733"/>
<polygon fill="midnightblue" stroke="midnightblue" points="197.817,-128.234 187.561,-130.892 197.236,-135.21 197.817,-128.234"/>
</g>
<!-- Node4 -->
<g id="node5" class="node"><title>Node4</title>
<g id="a_node5"><a xlink:href="table_8h.html" target="_top" xlink:title="ODP table. ">
<polygon fill="white" stroke="black" points="268.974,-56.5 268.974,-75.5 372.974,-75.5 372.974,-56.5 268.974,-56.5"/>
<text text-anchor="middle" x="320.974" y="-63.5" font-family="Helvetica,sans-Serif" font-size="10.00">odp/helper/table.h</text>
</a>
</g>
</g>
<!-- Node0&#45;&gt;Node4 -->
<g id="edge29" class="edge"><title>Node0&#45;&gt;Node4</title>
<path fill="none" stroke="midnightblue" d="M836.195,-177.24C709.122,-177.759 275.213,-176.255 233.974,-132 213.822,-110.374 250.984,-90.8574 282.817,-78.9777"/>
<polygon fill="midnightblue" stroke="midnightblue" points="284.211,-82.1964 292.456,-75.5421 281.861,-75.6027 284.211,-82.1964"/>
</g>
<!-- Node6 -->
<g id="node7" class="node"><title>Node6</title>
<g id="a_node7"><a xlink:href="strong__types_8h.html" target="_top" xlink:title="ODP Strong Types. ">
<polygon fill="white" stroke="black" points="85.9739,-0.5 85.9739,-19.5 227.974,-19.5 227.974,-0.5 85.9739,-0.5"/>
<text text-anchor="middle" x="156.974" y="-7.5" font-family="Helvetica,sans-Serif" font-size="10.00">odp/helper/strong_types.h</text>
</a>
</g>
</g>
<!-- Node0&#45;&gt;Node6 -->
<g id="edge26" class="edge"><title>Node0&#45;&gt;Node6</title>
<path fill="none" stroke="midnightblue" d="M836.428,-176.506C679.462,-174.096 39.8559,-162.433 10.9739,-132 -31.3556,-87.3977 65.8091,-43.4663 121.444,-22.9711"/>
<polygon fill="midnightblue" stroke="midnightblue" points="122.755,-26.2193 130.977,-19.5379 120.383,-19.6334 122.755,-26.2193"/>
</g>
<!-- Node7 -->
<g id="node8" class="node"><title>Node7</title>
<g id="a_node8"><a xlink:href="eth_8h.html" target="_top" xlink:title="ODP ethernet header. ">
<polygon fill="white" stroke="black" points="578.474,-56.5 578.474,-75.5 673.474,-75.5 673.474,-56.5 578.474,-56.5"/>
<text text-anchor="middle" x="625.974" y="-63.5" font-family="Helvetica,sans-Serif" font-size="10.00">odp/helper/eth.h</text>
</a>
</g>
</g>
<!-- Node0&#45;&gt;Node7 -->
<g id="edge7" class="edge"><title>Node0&#45;&gt;Node7</title>
<path fill="none" stroke="midnightblue" d="M859.376,-168.395C838.066,-152.698 793.284,-120.271 775.974,-112 744.126,-96.7821 706.003,-85.4261 676.161,-77.9286"/>
<polygon fill="midnightblue" stroke="midnightblue" points="676.924,-74.5122 666.379,-75.534 675.259,-81.3115 676.924,-74.5122"/>
</g>
<!-- Node8 -->
<g id="node9" class="node"><title>Node8</title>
<g id="a_node9"><a xlink:href="odph__hashtable_8h.html" target="_top" xlink:title="ODP Hash Table. ">
<polygon fill="white" stroke="black" points="242.974,-112.5 242.974,-131.5 398.974,-131.5 398.974,-112.5 242.974,-112.5"/>
<text text-anchor="middle" x="320.974" y="-119.5" font-family="Helvetica,sans-Serif" font-size="10.00">odp/helper/odph_hashtable.h</text>
</a>
</g>
</g>
<!-- Node0&#45;&gt;Node8 -->
<g id="edge9" class="edge"><title>Node0&#45;&gt;Node8</title>
<path fill="none" stroke="midnightblue" d="M836.408,-173.714C761.017,-166.532 575.886,-148.809 409.642,-132.162"/>
<polygon fill="midnightblue" stroke="midnightblue" points="409.525,-128.633 399.226,-131.118 408.827,-135.598 409.525,-128.633"/>
</g>
<!-- Node9 -->
<g id="node10" class="node"><title>Node9</title>
<g id="a_node10"><a xlink:href="icmp_8h.html" target="_top" xlink:title="ODP ICMP header. ">
<polygon fill="white" stroke="black" points="691.474,-56.5 691.474,-75.5 794.474,-75.5 794.474,-56.5 691.474,-56.5"/>
<text text-anchor="middle" x="742.974" y="-63.5" font-family="Helvetica,sans-Serif" font-size="10.00">odp/helper/icmp.h</text>
</a>
</g>
</g>
<!-- Node0&#45;&gt;Node9 -->
<g id="edge11" class="edge"><title>Node0&#45;&gt;Node9</title>
<path fill="none" stroke="midnightblue" d="M863.852,-168.45C852.822,-155.471 830.614,-130.365 808.974,-112 795.53,-100.591 779.161,-89.4149 766.088,-81.0545"/>
<polygon fill="midnightblue" stroke="midnightblue" points="767.571,-77.853 757.24,-75.5014 763.849,-83.782 767.571,-77.853"/>
</g>
<!-- Node10 -->
<g id="node11" class="node"><title>Node10</title>
<g id="a_node11"><a xlink:href="ip_8h.html" target="_top" xlink:title="ODP IP header. ">
<polygon fill="white" stroke="black" points="1014.97,-112.5 1014.97,-131.5 1102.97,-131.5 1102.97,-112.5 1014.97,-112.5"/>
<text text-anchor="middle" x="1058.97" y="-119.5" font-family="Helvetica,sans-Serif" font-size="10.00">odp/helper/ip.h</text>
</a>
</g>
</g>
<!-- Node0&#45;&gt;Node10 -->
<g id="edge13" class="edge"><title>Node0&#45;&gt;Node10</title>
<path fill="none" stroke="midnightblue" d="M900.763,-168.444C932.803,-159.241 983.907,-144.562 1019.33,-134.388"/>
<polygon fill="midnightblue" stroke="midnightblue" points="1020.68,-137.641 1029.32,-131.516 1018.75,-130.913 1020.68,-137.641"/>
</g>
<!-- Node12 -->
<g id="node13" class="node"><title>Node12</title>
<g id="a_node13"><a xlink:href="ipsec_8h.html" target="_top" xlink:title="ODP IPSec headers. ">
<polygon fill="white" stroke="black" points="1095.97,-56.5 1095.97,-75.5 1199.97,-75.5 1199.97,-56.5 1095.97,-56.5"/>
<text text-anchor="middle" x="1147.97" y="-63.5" font-family="Helvetica,sans-Serif" font-size="10.00">odp/helper/ipsec.h</text>
</a>
</g>
</g>
<!-- Node0&#45;&gt;Node12 -->
<g id="edge17" class="edge"><title>Node0&#45;&gt;Node12</title>
<path fill="none" stroke="midnightblue" d="M905.617,-174.158C964.15,-168.772 1079.44,-155.465 1111.97,-132 1127.63,-120.706 1137.29,-100.4 1142.61,-85.4801"/>
<polygon fill="midnightblue" stroke="midnightblue" points="1146,-86.3655 1145.74,-75.7739 1139.34,-84.2171 1146,-86.3655"/>
</g>
<!-- Node13 -->
<g id="node14" class="node"><title>Node13</title>
<g id="a_node14"><a xlink:href="odph__lineartable_8h.html" target="_top" xlink:title="ODP Linear Table. ">
<polygon fill="white" stroke="black" points="608.474,-112.5 608.474,-131.5 767.474,-131.5 767.474,-112.5 608.474,-112.5"/>
<text text-anchor="middle" x="687.974" y="-119.5" font-family="Helvetica,sans-Serif" font-size="10.00">odp/helper/odph_lineartable.h</text>
</a>
</g>
</g>
<!-- Node0&#45;&gt;Node13 -->
<g id="edge19" class="edge"><title>Node0&#45;&gt;Node13</title>
<path fill="none" stroke="midnightblue" d="M841.977,-168.444C810.789,-159.241 761.044,-144.562 726.566,-134.388"/>
<polygon fill="midnightblue" stroke="midnightblue" points="727.417,-130.99 716.835,-131.516 725.436,-137.704 727.417,-130.99"/>
</g>
<!-- Node14 -->
<g id="node15" class="node"><title>Node14</title>
<g id="a_node15"><a xlink:href="odph__iplookuptable_8h.html" target="_top" xlink:title="ODP IP Lookup Table. ">
<polygon fill="white" stroke="black" points="417.474,-112.5 417.474,-131.5 590.474,-131.5 590.474,-112.5 417.474,-112.5"/>
<text text-anchor="middle" x="503.974" y="-119.5" font-family="Helvetica,sans-Serif" font-size="10.00">odp/helper/odph_iplookuptable.h</text>
</a>
</g>
</g>
<!-- Node0&#45;&gt;Node14 -->
<g id="edge22" class="edge"><title>Node0&#45;&gt;Node14</title>
<path fill="none" stroke="midnightblue" d="M836.447,-171.92C776.166,-163.05 650.685,-144.587 572.291,-133.052"/>
<polygon fill="midnightblue" stroke="midnightblue" points="572.429,-129.535 562.026,-131.542 571.41,-136.46 572.429,-129.535"/>
</g>
<!-- Node15 -->
<g id="node16" class="node"><title>Node15</title>
<g id="a_node16"><a xlink:href="sctp_8h.html" target="_top" xlink:title="ODP SCTP header. ">
<polygon fill="white" stroke="black" points="1217.97,-56.5 1217.97,-75.5 1317.97,-75.5 1317.97,-56.5 1217.97,-56.5"/>
<text text-anchor="middle" x="1267.97" y="-63.5" font-family="Helvetica,sans-Serif" font-size="10.00">odp/helper/sctp.h</text>
</a>
</g>
</g>
<!-- Node0&#45;&gt;Node15 -->
<g id="edge24" class="edge"><title>Node0&#45;&gt;Node15</title>
<path fill="none" stroke="midnightblue" d="M905.9,-174.243C957.16,-169.487 1055.32,-157.666 1134.97,-132 1175.5,-118.943 1219.27,-95.5668 1245.11,-80.6936"/>
<polygon fill="midnightblue" stroke="midnightblue" points="1246.91,-83.6963 1253.79,-75.6336 1243.38,-77.6502 1246.91,-83.6963"/>
</g>
<!-- Node16 -->
<g id="node17" class="node"><title>Node16</title>
<g id="a_node17"><a xlink:href="tcp_8h.html" target="_top" xlink:title="ODP TCP header. ">
<polygon fill="white" stroke="black" points="1444.47,-112.5 1444.47,-131.5 1539.47,-131.5 1539.47,-112.5 1444.47,-112.5"/>
<text text-anchor="middle" x="1491.97" y="-119.5" font-family="Helvetica,sans-Serif" font-size="10.00">odp/helper/tcp.h</text>
</a>
</g>
</g>
<!-- Node0&#45;&gt;Node16 -->
<g id="edge27" class="edge"><title>Node0&#45;&gt;Node16</title>
<path fill="none" stroke="midnightblue" d="M905.722,-175.161C992.798,-170.354 1227.53,-156.167 1434.29,-131.984"/>
<polygon fill="midnightblue" stroke="midnightblue" points="1434.91,-135.436 1444.43,-130.788 1434.08,-128.484 1434.91,-135.436"/>
</g>
<!-- Node17 -->
<g id="node18" class="node"><title>Node17</title>
<g id="a_node18"><a xlink:href="threads_8h.html" target="_top" xlink:title="ODP Linux helper API. ">
<polygon fill="white" stroke="black" points="1309.97,-112.5 1309.97,-131.5 1425.97,-131.5 1425.97,-112.5 1309.97,-112.5"/>
<text text-anchor="middle" x="1367.97" y="-119.5" font-family="Helvetica,sans-Serif" font-size="10.00">odp/helper/threads.h</text>
</a>
</g>
</g>
<!-- Node0&#45;&gt;Node17 -->
<g id="edge30" class="edge"><title>Node0&#45;&gt;Node17</title>
<path fill="none" stroke="midnightblue" d="M905.527,-173.246C986.991,-164.395 1192.28,-142.089 1299.84,-130.403"/>
<polygon fill="midnightblue" stroke="midnightblue" points="1300.37,-133.866 1309.94,-129.306 1299.62,-126.906 1300.37,-133.866"/>
</g>
<!-- Node21 -->
<g id="node22" class="node"><title>Node21</title>
<g id="a_node22"><a xlink:href="udp_8h.html" target="_top" xlink:title="ODP UDP header. ">
<polygon fill="white" stroke="black" points="860.974,-112.5 860.974,-131.5 958.974,-131.5 958.974,-112.5 860.974,-112.5"/>
<text text-anchor="middle" x="909.974" y="-119.5" font-family="Helvetica,sans-Serif" font-size="10.00">odp/helper/udp.h</text>
</a>
</g>
</g>
<!-- Node0&#45;&gt;Node21 -->
<g id="edge35" class="edge"><title>Node0&#45;&gt;Node21</title>
<path fill="none" stroke="midnightblue" d="M877.414,-168.083C882.923,-160.455 891.005,-149.264 897.739,-139.941"/>
<polygon fill="midnightblue" stroke="midnightblue" points="900.636,-141.907 903.654,-131.751 894.961,-137.809 900.636,-141.907"/>
</g>
<!-- Node22 -->
<g id="node23" class="node"><title>Node22</title>
<g id="a_node23"><a xlink:href="version_8h.html" target="_top" xlink:title="ODP helper version. ">
<polygon fill="white" stroke="black" points="1557.97,-112.5 1557.97,-131.5 1671.97,-131.5 1671.97,-112.5 1557.97,-112.5"/>
<text text-anchor="middle" x="1614.97" y="-119.5" font-family="Helvetica,sans-Serif" font-size="10.00">odp/helper/version.h</text>
</a>
</g>
</g>
<!-- Node0&#45;&gt;Node22 -->
<g id="edge38" class="edge"><title>Node0&#45;&gt;Node22</title>
<path fill="none" stroke="midnightblue" d="M905.618,-175.549C1004.27,-171.238 1295.28,-157.27 1547.67,-132.064"/>
<polygon fill="midnightblue" stroke="midnightblue" points="1548.17,-135.532 1557.77,-131.048 1547.46,-128.567 1548.17,-135.532"/>
</g>
<!-- Node2 -->
<g id="node3" class="node"><title>Node2</title>
<polygon fill="white" stroke="#bfbfbf" points="957.474,-0.5 957.474,-19.5 1020.47,-19.5 1020.47,-0.5 957.474,-0.5"/>
<text text-anchor="middle" x="988.974" y="-7.5" font-family="Helvetica,sans-Serif" font-size="10.00">odp_api.h</text>
</g>
<!-- Node1&#45;&gt;Node2 -->
<g id="edge2" class="edge"><title>Node1&#45;&gt;Node2</title>
<path fill="none" stroke="midnightblue" d="M922.667,-56.324C934.875,-47.979 953.552,-35.2122 967.977,-25.3524"/>
<polygon fill="midnightblue" stroke="midnightblue" points="970.032,-28.1871 976.313,-19.6545 966.082,-22.4082 970.032,-28.1871"/>
</g>
<!-- Node3&#45;&gt;Node4 -->
<g id="edge4" class="edge"><title>Node3&#45;&gt;Node4</title>
<path fill="none" stroke="midnightblue" d="M138.358,-112.444C175.896,-103.102 236.105,-88.1194 277.041,-77.9326"/>
<polygon fill="midnightblue" stroke="midnightblue" points="277.892,-81.3278 286.75,-75.5164 276.201,-74.5349 277.892,-81.3278"/>
</g>
<!-- Node5 -->
<g id="node6" class="node"><title>Node5</title>
<polygon fill="white" stroke="#bfbfbf" points="439.474,-0.5 439.474,-19.5 492.474,-19.5 492.474,-0.5 439.474,-0.5"/>
<text text-anchor="middle" x="465.974" y="-7.5" font-family="Helvetica,sans-Serif" font-size="10.00">stdint.h</text>
</g>
<!-- Node4&#45;&gt;Node5 -->
<g id="edge5" class="edge"><title>Node4&#45;&gt;Node5</title>
<path fill="none" stroke="midnightblue" d="M343.95,-56.4435C368.131,-47.4381 406.392,-33.1891 433.62,-23.049"/>
<polygon fill="midnightblue" stroke="midnightblue" points="434.956,-26.2864 443.106,-19.5164 432.513,-19.7265 434.956,-26.2864"/>
</g>
<!-- Node4&#45;&gt;Node6 -->
<g id="edge6" class="edge"><title>Node4&#45;&gt;Node6</title>
<path fill="none" stroke="midnightblue" d="M294.988,-56.4435C267.278,-47.3196 223.222,-32.8133 192.358,-22.6509"/>
<polygon fill="midnightblue" stroke="midnightblue" points="193.432,-19.3196 182.839,-19.5164 191.242,-25.9684 193.432,-19.3196"/>
</g>
<!-- Node7&#45;&gt;Node2 -->
<g id="edge8" class="edge"><title>Node7&#45;&gt;Node2</title>
<path fill="none" stroke="midnightblue" d="M673.626,-57.2958C676.45,-56.8535 679.249,-56.4187 681.974,-56 776.653,-41.4535 887.927,-25.4032 947.059,-16.9569"/>
<polygon fill="midnightblue" stroke="midnightblue" points="947.726,-20.3972 957.131,-15.5197 946.737,-13.4674 947.726,-20.3972"/>
</g>
<!-- Node8&#45;&gt;Node4 -->
<g id="edge10" class="edge"><title>Node8&#45;&gt;Node4</title>
<path fill="none" stroke="midnightblue" d="M320.974,-112.083C320.974,-105.006 320.974,-94.8611 320.974,-85.9865"/>
<polygon fill="midnightblue" stroke="midnightblue" points="324.474,-85.751 320.974,-75.7511 317.474,-85.7511 324.474,-85.751"/>
</g>
<!-- Node9&#45;&gt;Node2 -->
<g id="edge12" class="edge"><title>Node9&#45;&gt;Node2</title>
<path fill="none" stroke="midnightblue" d="M781.953,-56.4435C827.045,-46.5455 900.993,-30.3128 947.227,-20.1639"/>
<polygon fill="midnightblue" stroke="midnightblue" points="948.2,-23.5337 957.217,-17.971 946.699,-16.6965 948.2,-23.5337"/>
</g>
<!-- Node10&#45;&gt;Node1 -->
<g id="edge15" class="edge"><title>Node10&#45;&gt;Node1</title>
<path fill="none" stroke="midnightblue" d="M1035.36,-112.444C1010.52,-103.438 971.199,-89.1891 943.22,-79.049"/>
<polygon fill="midnightblue" stroke="midnightblue" points="944.067,-75.6332 933.473,-75.5164 941.682,-82.2144 944.067,-75.6332"/>
</g>
<!-- Node10&#45;&gt;Node2 -->
<g id="edge14" class="edge"><title>Node10&#45;&gt;Node2</title>
<path fill="none" stroke="midnightblue" d="M1059.45,-112.316C1059.76,-99.1607 1058.74,-73.8295 1047.97,-56 1040.12,-42.9955 1026.98,-32.4225 1015.09,-24.8006"/>
<polygon fill="midnightblue" stroke="midnightblue" points="1016.73,-21.7012 1006.35,-19.556 1013.13,-27.7032 1016.73,-21.7012"/>
</g>
<!-- Node11 -->
<g id="node12" class="node"><title>Node11</title>
<polygon fill="white" stroke="#bfbfbf" points="986.474,-56.5 986.474,-75.5 1039.47,-75.5 1039.47,-56.5 986.474,-56.5"/>
<text text-anchor="middle" x="1012.97" y="-63.5" font-family="Helvetica,sans-Serif" font-size="10.00">string.h</text>
</g>
<!-- Node10&#45;&gt;Node11 -->
<g id="edge16" class="edge"><title>Node10&#45;&gt;Node11</title>
<path fill="none" stroke="midnightblue" d="M1051.38,-112.083C1044.75,-104.298 1034.95,-92.8015 1026.92,-83.3665"/>
<polygon fill="midnightblue" stroke="midnightblue" points="1029.58,-81.0939 1020.43,-75.7511 1024.25,-85.6332 1029.58,-81.0939"/>
</g>
<!-- Node12&#45;&gt;Node2 -->
<g id="edge18" class="edge"><title>Node12&#45;&gt;Node2</title>
<path fill="none" stroke="midnightblue" d="M1122.78,-56.4435C1096.03,-47.3591 1053.57,-32.9388 1023.67,-22.7831"/>
<polygon fill="midnightblue" stroke="midnightblue" points="1024.64,-19.4182 1014.05,-19.5164 1022.39,-26.0464 1024.64,-19.4182"/>
</g>
<!-- Node13&#45;&gt;Node4 -->
<g id="edge21" class="edge"><title>Node13&#45;&gt;Node4</title>
<path fill="none" stroke="midnightblue" d="M629.822,-112.444C562.631,-102.557 452.49,-86.3512 383.499,-76.1999"/>
<polygon fill="midnightblue" stroke="midnightblue" points="383.614,-72.6792 373.211,-74.6861 382.595,-79.6047 383.614,-72.6792"/>
</g>
<!-- Node13&#45;&gt;Node5 -->
<g id="edge20" class="edge"><title>Node13&#45;&gt;Node5</title>
<path fill="none" stroke="midnightblue" d="M660.853,-112.486C636.298,-104.372 599.419,-91.1691 568.974,-76 538.939,-61.0355 506.561,-39.6459 486.286,-25.5476"/>
<polygon fill="midnightblue" stroke="midnightblue" points="488.068,-22.5216 477.875,-19.6324 484.041,-28.2476 488.068,-22.5216"/>
</g>
<!-- Node14&#45;&gt;Node4 -->
<g id="edge23" class="edge"><title>Node14&#45;&gt;Node4</title>
<path fill="none" stroke="midnightblue" d="M474.977,-112.444C443.789,-103.241 394.044,-88.5617 359.566,-78.3879"/>
<polygon fill="midnightblue" stroke="midnightblue" points="360.417,-74.9898 349.835,-75.5164 358.436,-81.7036 360.417,-74.9898"/>
</g>
<!-- Node15&#45;&gt;Node2 -->
<g id="edge25" class="edge"><title>Node15&#45;&gt;Node2</title>
<path fill="none" stroke="midnightblue" d="M1223.77,-56.4435C1170.76,-46.1835 1082.58,-29.1171 1030.7,-19.0755"/>
<polygon fill="midnightblue" stroke="midnightblue" points="1031.31,-15.629 1020.83,-17.1649 1029.98,-22.5014 1031.31,-15.629"/>
</g>
<!-- Node16&#45;&gt;Node2 -->
<g id="edge28" class="edge"><title>Node16&#45;&gt;Node2</title>
<path fill="none" stroke="midnightblue" d="M1517.87,-112.451C1548.95,-100.901 1594.35,-79.0867 1572.97,-56 1536.31,-16.4007 1158.88,-11.5322 1031.04,-11.0243"/>
<polygon fill="midnightblue" stroke="midnightblue" points="1030.88,-7.52382 1020.87,-10.9911 1030.85,-14.5238 1030.88,-7.52382"/>
</g>
<!-- Node18 -->
<g id="node19" class="node"><title>Node18</title>
<g id="a_node19"><a xlink:href="pthread_8h.html" target="_top" xlink:title="ODP Linux helper for pthreads. ">
<polygon fill="white" stroke="black" points="1336.47,-56.5 1336.47,-75.5 1399.47,-75.5 1399.47,-56.5 1336.47,-56.5"/>
<text text-anchor="middle" x="1367.97" y="-63.5" font-family="Helvetica,sans-Serif" font-size="10.00">pthread.h</text>
</a>
</g>
</g>
<!-- Node17&#45;&gt;Node18 -->
<g id="edge31" class="edge"><title>Node17&#45;&gt;Node18</title>
<path fill="none" stroke="midnightblue" d="M1362.81,-112.083C1361.3,-104.927 1360.87,-94.6353 1361.52,-85.6911"/>
<polygon fill="midnightblue" stroke="midnightblue" points="1364.99,-86.1262 1362.84,-75.7511 1358.05,-85.2002 1364.99,-86.1262"/>
</g>
<!-- Node19 -->
<g id="node20" class="node"><title>Node19</title>
<polygon fill="white" stroke="#bfbfbf" points="1417.47,-56.5 1417.47,-75.5 1474.47,-75.5 1474.47,-56.5 1417.47,-56.5"/>
<text text-anchor="middle" x="1445.97" y="-63.5" font-family="Helvetica,sans-Serif" font-size="10.00">getopt.h</text>
</g>
<!-- Node17&#45;&gt;Node19 -->
<g id="edge33" class="edge"><title>Node17&#45;&gt;Node19</title>
<path fill="none" stroke="midnightblue" d="M1380.51,-112.324C1392.56,-103.979 1411,-91.2122 1425.24,-81.3524"/>
<polygon fill="midnightblue" stroke="midnightblue" points="1427.24,-84.2243 1433.47,-75.6545 1423.26,-78.469 1427.24,-84.2243"/>
</g>
<!-- Node20 -->
<g id="node21" class="node"><title>Node20</title>
<polygon fill="white" stroke="#bfbfbf" points="1492.47,-56.5 1492.47,-75.5 1563.47,-75.5 1563.47,-56.5 1492.47,-56.5"/>
<text text-anchor="middle" x="1527.97" y="-63.5" font-family="Helvetica,sans-Serif" font-size="10.00">sys/types.h</text>
</g>
<!-- Node17&#45;&gt;Node20 -->
<g id="edge34" class="edge"><title>Node17&#45;&gt;Node20</title>
<path fill="none" stroke="midnightblue" d="M1393.33,-112.444C1420.24,-103.359 1462.97,-88.9388 1493.06,-78.7831"/>
<polygon fill="midnightblue" stroke="midnightblue" points="1494.38,-82.0305 1502.74,-75.5164 1492.15,-75.3981 1494.38,-82.0305"/>
</g>
<!-- Node18&#45;&gt;Node17 -->
<g id="edge32" class="edge"><title>Node18&#45;&gt;Node17</title>
<path fill="none" stroke="midnightblue" d="M1373.1,-75.7511C1374.63,-82.8579 1375.08,-93.1357 1374.45,-102.101"/>
<polygon fill="midnightblue" stroke="midnightblue" points="1370.97,-101.713 1373.14,-112.083 1377.91,-102.622 1370.97,-101.713"/>
</g>
<!-- Node21&#45;&gt;Node1 -->
<g id="edge37" class="edge"><title>Node21&#45;&gt;Node1</title>
<path fill="none" stroke="midnightblue" d="M909.974,-112.083C909.974,-105.006 909.974,-94.8611 909.974,-85.9865"/>
<polygon fill="midnightblue" stroke="midnightblue" points="913.474,-85.751 909.974,-75.7511 906.474,-85.7511 913.474,-85.751"/>
</g>
<!-- Node21&#45;&gt;Node2 -->
<g id="edge36" class="edge"><title>Node21&#45;&gt;Node2</title>
<path fill="none" stroke="midnightblue" d="M888.754,-112.497C862.995,-100.915 824.978,-78.9773 841.974,-56 865.923,-23.6224 912.71,-13.7791 947.092,-11.1542"/>
<polygon fill="midnightblue" stroke="midnightblue" points="947.547,-14.6336 957.325,-10.5544 947.137,-7.64562 947.547,-14.6336"/>
</g>
</g>
</svg>
